0
SECTION
2
HEADER
9
$INSUNITS
70
4
9
$ACADVER
1
AC1014
9
$HANDSEED
5
FFFF
0
ENDSEC
0
SECTION
2
TABLES
0
TABLE
2
VPORT
5
8
100
AcDbSymbolTable
0
ENDTAB
0
TABLE
2
LTYPE
5
5
100
AcDbSymbolTable
0
LTYPE
5
14
100
AcDbSymbolTableRecord
100
AcDbLinetypeTableRecord
2
BYBLOCK
70
0
0
LTYPE
5
15
100
AcDbSymbolTableRecord
100
AcDbLinetypeTableRecord
2
BYLAYER
70
0
0
ENDTAB
0
TABLE
2
LAYER
5
2
100
AcDbSymbolTable
70
2
0
LAYER
5
50
100
AcDbSymbolTableRecord
100
AcDbLayerTableRecord
2
0
70
0
6
CONTINUOUS
0
ENDTAB
0
TABLE
2
STYLE
5
3
100
AcDbSymbolTable
70
1
0
STYLE
5
11
100
AcDbSymbolTableRecord
100
AcDbTextStyleTableRecord
2
STANDARD
70
0
0
ENDTAB
0
TABLE
2
VIEW
5
6
100
AcDbSymbolTable
70
0
0
ENDTAB
0
TABLE
2
UCS
5
7
100
AcDbSymbolTable
70
0
0
ENDTAB
0
TABLE
2
APPID
5
9
100
AcDbSymbolTable
70
2
0
APPID
5
12
100
AcDbSymbolTableRecord
100
AcDbRegAppTableRecord
2
ACAD
70
0
0
ENDTAB
0
TABLE
2
DIMSTYLE
5
A
100
AcDbSymbolTable
70
1
0
ENDTAB
0
TABLE
2
BLOCK_RECORD
5
1
100
AcDbSymbolTable
70
1
0
BLOCK_RECORD
5
1F
100
AcDbSymbolTableRecord
100
AcDbBlockTableRecord
2
*MODEL_SPACE
0
BLOCK_RECORD
5
1B
100
AcDbSymbolTableRecord
100
AcDbBlockTableRecord
2
*PAPER_SPACE
0
ENDTAB
0
ENDSEC
0
SECTION
2
BLOCKS
0
BLOCK
5
20
100
AcDbEntity
100
AcDbBlockBegin
2
*MODEL_SPACE
0
ENDBLK
5
21
100
AcDbEntity
100
AcDbBlockEnd
0
BLOCK
5
1C
100
AcDbEntity
100
AcDbBlockBegin
2
*PAPER_SPACE
0
ENDBLK
5
1D
100
AcDbEntity
100
AcDbBlockEnd
0
ENDSEC
0
SECTION
2
ENTITIES
0
CIRCLE
5
100
100
AcDbEntity
8
0
100
AcDbCircle
10
-39.999999999999964
20
-64.000000000000028
30
0
40
2.0000000000000018
210
0
220
-0
230
1
0
CIRCLE
5
101
100
AcDbEntity
8
0
100
AcDbCircle
10
40.000000000000028
20
-63.999999999999986
30
0
40
1.9999999999999973
210
0
220
-0
230
1
0
CIRCLE
5
102
100
AcDbEntity
8
0
100
AcDbCircle
10
-14.999999999999943
20
97
30
0
40
1.9999999999999996
210
0
220
-0
230
1
0
CIRCLE
5
103
100
AcDbEntity
8
0
100
AcDbCircle
10
15.000000000000044
20
96.999999999999915
30
0
40
1.9999999999999996
210
0
220
-0
230
1
0
CIRCLE
5
104
100
AcDbEntity
8
0
100
AcDbCircle
10
15.000000000000018
20
72.999999999999986
30
0
40
1.9999999999999996
210
0
220
-0
230
1
0
CIRCLE
5
105
100
AcDbEntity
8
0
100
AcDbCircle
10
-14.999999999999968
20
72.999999999999986
30
0
40
1.9999999999999996
210
0
220
-0
230
1
0
CIRCLE
5
106
100
AcDbEntity
8
0
100
AcDbCircle
10
-14.999999999999996
20
58.000000000000007
30
0
40
1.5000000000000036
210
0
220
-0
230
1
0
CIRCLE
5
107
100
AcDbEntity
8
0
100
AcDbCircle
10
15
20
58.000000000000014
30
0
40
1.5000000000000036
210
0
220
-0
230
1
0
CIRCLE
5
108
100
AcDbEntity
8
0
100
AcDbCircle
10
65.000000000000028
20
-46
30
0
40
2.0000000000000018
210
0
220
-0
230
1
0
CIRCLE
5
109
100
AcDbEntity
8
0
100
AcDbCircle
10
-51.000000000000014
20
-45.999999999999986
30
0
40
2.0000000000000018
210
0
220
-0
230
1
0
CIRCLE
5
110
100
AcDbEntity
8
0
100
AcDbCircle
10
-65.000000000000014
20
-30.000000000000028
30
0
40
2.0000000000000018
210
0
220
-0
230
1
0
CIRCLE
5
111
100
AcDbEntity
8
0
100
AcDbCircle
10
-51.000000000000021
20
-30.000000000000004
30
0
40
2.0000000000000018
210
0
220
-0
230
1
0
CIRCLE
5
112
100
AcDbEntity
8
0
100
AcDbCircle
10
-30.000000000000007
20
-30
30
0
40
1.4999999999999991
210
0
220
-0
230
1
0
CIRCLE
5
113
100
AcDbEntity
8
0
100
AcDbCircle
10
29.999999999999996
20
-30
30
0
40
1.4999999999999991
210
0
220
-0
230
1
0
CIRCLE
5
114
100
AcDbEntity
8
0
100
AcDbCircle
10
-30
20
30
30
0
40
1.4999999999999991
210
0
220
-0
230
1
0
CIRCLE
5
115
100
AcDbEntity
8
0
100
AcDbCircle
10
51.000000000000021
20
-46
30
0
40
2.0000000000000018
210
0
220
-0
230
1
0
CIRCLE
5
116
100
AcDbEntity
8
0
100
AcDbCircle
10
-65.000000000000014
20
-46
30
0
40
2.0000000000000018
210
0
220
-0
230
1
0
CIRCLE
5
117
100
AcDbEntity
8
0
100
AcDbCircle
10
51.000000000000021
20
-30.000000000000018
30
0
40
2.0000000000000018
210
0
220
-0
230
1
0
CIRCLE
5
118
100
AcDbEntity
8
0
100
AcDbCircle
10
30
20
30.000000000000007
30
0
40
1.4999999999999991
210
0
220
-0
230
1
0
CIRCLE
5
119
100
AcDbEntity
8
0
100
AcDbCircle
10
-15
20
44
30
0
40
1.5000000000000036
210
0
220
-0
230
1
0
CIRCLE
5
120
100
AcDbEntity
8
0
100
AcDbCircle
10
14.999999999999998
20
43.999999999999993
30
0
40
1.5000000000000036
210
0
220
-0
230
1
0
CIRCLE
5
121
100
AcDbEntity
8
0
100
AcDbCircle
10
65.000000000000014
20
-30.000000000000018
30
0
40
2.0000000000000018
210
0
220
-0
230
1
0
CIRCLE
5
122
100
AcDbEntity
8
0
100
AcDbCircle
10
-21.650635094610951
20
-50.500000000000028
30
0
40
2.0000000000000018
210
0
220
-0
230
1
0
CIRCLE
5
123
100
AcDbEntity
8
0
100
AcDbCircle
10
-85.000000000000014
20
5.999999999999952
30
0
40
1.9999999999999929
210
0
220
-0
230
1
0
CIRCLE
5
124
100
AcDbEntity
8
0
100
AcDbCircle
10
-53.999999999999986
20
74.465373371413634
30
0
40
2.0000000000000018
210
0
220
-0
230
1
0
CIRCLE
5
125
100
AcDbEntity
8
0
100
AcDbCircle
10
53.999999999999993
20
50.216662065449327
30
0
40
2.0000000000000018
210
0
220
-0
230
1
0
CIRCLE
5
126
100
AcDbEntity
8
0
100
AcDbCircle
10
55.000000000000014
20
5.999999999999952
30
0
40
2.0000000000000018
210
0
220
-0
230
1
0
CIRCLE
5
127
100
AcDbEntity
8
0
100
AcDbCircle
10
55.000000000000014
20
35.99999999999995
30
0
40
2.0000000000000018
210
0
220
-0
230
1
0
CIRCLE
5
128
100
AcDbEntity
8
0
100
AcDbCircle
10
-53.999999999999993
20
50.216662065449327
30
0
40
2.0000000000000018
210
0
220
-0
230
1
0
CIRCLE
5
129
100
AcDbEntity
8
0
100
AcDbCircle
10
-85.000000000000014
20
35.99999999999995
30
0
40
1.9999999999999929
210
0
220
-0
230
1
0
CIRCLE
5
130
100
AcDbEntity
8
0
100
AcDbCircle
10
21.650635094610969
20
-50.500000000000028
30
0
40
1.9999999999999996
210
0
220
-0
230
1
0
CIRCLE
5
131
100
AcDbEntity
8
0
100
AcDbCircle
10
-55.000000000000014
20
5.999999999999952
30
0
40
2.0000000000000018
210
0
220
-0
230
1
0
CIRCLE
5
132
100
AcDbEntity
8
0
100
AcDbCircle
10
-75
20
62.341017718431473
30
0
40
2.0000000000000018
210
0
220
-0
230
1
0
CIRCLE
5
133
100
AcDbEntity
8
0
100
AcDbCircle
10
53.999999999999986
20
74.465373371413634
30
0
40
2.0000000000000018
210
0
220
-0
230
1
0
CIRCLE
5
134
100
AcDbEntity
8
0
100
AcDbCircle
10
85.000000000000014
20
5.999999999999952
30
0
40
1.9999999999999929
210
0
220
-0
230
1
0
CIRCLE
5
135
100
AcDbEntity
8
0
100
AcDbCircle
10
85.000000000000014
20
35.99999999999995
30
0
40
1.9999999999999929
210
0
220
-0
230
1
0
CIRCLE
5
136
100
AcDbEntity
8
0
100
AcDbCircle
10
75
20
62.341017718431473
30
0
40
2.0000000000000018
210
0
220
-0
230
1
0
CIRCLE
5
137
100
AcDbEntity
8
0
100
AcDbCircle
10
-55.000000000000014
20
35.99999999999995
30
0
40
2.0000000000000018
210
0
220
-0
230
1
0
LWPOLYLINE
5
138
100
AcDbEntity
8
0
100
AcDbPolyline
90
18
70
1
43
0.0
10
-10
20
-79.999999999999986
10
-10
20
14.064750647031348
10
10
20
14.064750647031339
10
10
20
-80
10
75.000000000000014
20
-80
42
0.41421356237309476
10
85
20
-69.999999999999986
10
85
20
-9.0000000000000764
42
-0.41421356237309542
10
95.000000000000014
20
0.99999999999992095
42
0.41421356237309354
10
104.99999999999997
20
10.999999999999927
10
104.99999999999997
20
62.341017718431559
42
0.28590046875990238
10
88.235294117646987
20
89.263628840300413
42
0.23251382634768594
10
-88.235294117647157
20
89.263628840300342
42
0.2859004687599016
10
-105
20
62.341017718431459
10
-105
20
10.999999999999943
42
0.41421356237309476
10
-95
20
0.99999999999993872
42
-0.41421356237309442
10
-85.000000000000014
20
-9.0000000000000586
10
-84.999999999999986
20
-69.999999999999986
42
0.41421356237309503
10
-74.999999999999986
20
-79.999999999999986
0
LINE
5
139
100
AcDbEntity
8
0
100
AcDbLine
10
15.000000000000018
20
72.999999999999986
30
0
11
19.000000000000018
21
72.999999999999986
31
0
0
LINE
5
140
100
AcDbEntity
8
0
100
AcDbLine
10
19.000000000000018
20
72.999999999999986
30
0
11
19.000000000000018
21
68.999999999999986
31
0
0
LWPOLYLINE
5
141
100
AcDbEntity
8
0
100
AcDbPolyline
90
6
70
1
43
0.0
10
19.000000000000018
20
68.999999999999986
10
-18.999999999999986
20
68.999999999999986
10
-18.999999999999986
20
100.99999999999997
10
-58.606665978959434
20
100.9999999999998
42
-0.14980471159475048
10
58.606665978959512
20
100.99999999999997
10
19.000000000000018
20
100.99999999999997
0
LINE
5
142
100
AcDbEntity
8
0
100
AcDbLine
10
-18.999999999999986
20
100.99999999999997
30
0
11
19.000000000000018
21
100.99999999999997
31
0
0
LINE
5
143
100
AcDbEntity
8
0
100
AcDbLine
10
15.000000000000044
20
96.999999999999915
30
0
11
15.000000000000044
21
86.999999999999915
31
0
0
LINE
5
144
100
AcDbEntity
8
0
100
AcDbLine
10
15.000000000000044
20
86.999999999999915
30
0
11
5.0000000000000444
21
86.999999999999915
31
0
0
CIRCLE
5
145
100
AcDbEntity
8
0
100
AcDbCircle
10
5.0000000000000444
20
86.999999999999915
30
0
40
1.5000000000000002
210
0
220
0
230
1
0
CIRCLE
5
146
100
AcDbEntity
8
0
100
AcDbCircle
10
5.0000000000000444
20
86.999999999999915
30
0
40
2.5
210
0
220
0
230
1
0
LINE
5
147
100
AcDbEntity
8
0
100
AcDbLine
10
5.0000000000000444
20
86.999999999999915
30
0
11
-31.999999999999954
21
86.999999999999915
31
0
0
CIRCLE
5
148
100
AcDbEntity
8
0
100
AcDbCircle
10
-31.999999999999954
20
86.999999999999915
30
0
40
1.4999999999999971
210
0
220
0
230
1
0
CIRCLE
5
149
100
AcDbEntity
8
0
100
AcDbCircle
10
-31.999999999999954
20
86.999999999999915
30
0
40
2.4999999999999996
210
0
220
0
230
1
0
LINE
5
150
100
AcDbEntity
8
0
100
AcDbLine
10
5.0000000000000444
20
86.999999999999915
30
0
11
5.0000000000000444
21
49.999999999999922
31
0
0
CIRCLE
5
151
100
AcDbEntity
8
0
100
AcDbCircle
10
5.0000000000000444
20
49.999999999999922
30
0
40
1.4999999999999993
210
0
220
0
230
1
0
CIRCLE
5
152
100
AcDbEntity
8
0
100
AcDbCircle
10
5.0000000000000444
20
49.999999999999922
30
0
40
2.5
210
0
220
0
230
1
0
LINE
5
153
100
AcDbEntity
8
0
100
AcDbLine
10
5.0000000000000444
20
49.999999999999922
30
0
11
-31.999999999999957
21
49.999999999999922
31
0
0
CIRCLE
5
154
100
AcDbEntity
8
0
100
AcDbCircle
10
-31.999999999999957
20
49.999999999999922
30
0
40
1.4999999999999987
210
0
220
0
230
1
0
CIRCLE
5
155
100
AcDbEntity
8
0
100
AcDbCircle
10
-31.999999999999957
20
49.999999999999922
30
0
40
2.4999999999999982
210
0
220
0
230
1
0
LINE
5
156
100
AcDbEntity
8
0
100
AcDbLine
10
-31.999999999999854
20
47.499999999999922
30
0
11
5.0000000000001439
21
47.500000000001478
31
0
0
LINE
5
157
100
AcDbEntity
8
0
100
AcDbLine
10
-34.49999999999995
20
86.999999999999915
30
0
11
-34.49999999999995
21
49.999999999999922
31
0
0
LINE
5
158
100
AcDbEntity
8
0
100
AcDbLine
10
-31.999999999999954
20
89.499999999999915
30
0
11
5.0000000000000409
21
89.499999999999915
31
0
0
LINE
5
159
100
AcDbEntity
8
0
100
AcDbLine
10
7.5000000000000453
20
86.999999999999915
30
0
11
7.5000000000000444
21
49.999999999999922
31
0
0
LINE
5
160
100
AcDbEntity
8
0
100
AcDbLine
10
19.000000000000018
20
100.99999999999997
30
0
11
19.000000000000021
21
108.87500918807493
31
0
0
LINE
5
161
100
AcDbEntity
8
0
100
AcDbLine
10
-18.999999999999986
20
100.99999999999997
30
0
11
-18.999999999999979
21
108.87500918807493
31
0
0
LINE
5
162
100
AcDbEntity
8
0
100
AcDbLine
10
58.606665978959512
20
100.99999999999997
30
0
11
58.606665978959512
21
108.99999999999999
31
0
0
LINE
5
163
100
AcDbEntity
8
0
100
AcDbLine
10
-58.60666597895942
20
100.99999999999997
30
0
11
-58.60666597895942
21
108.99999999999999
31
0
0
ARC
5
164
100
AcDbEntity
8
0
100
AcDbCircle
10
2.8421709430404007e-13
20
-82.220445305493399
30
0
40
200.00000000000119
210
0
220
-0
230
1
100
AcDbArc
50
72.960355375384893
51
107.03964462461526
0
LINE
5
165
100
AcDbEntity
8
0
100
AcDbLine
10
-58.60666597895942
20
100.99999999999997
30
0
11
-58.60666597895942
21
92.999999999999972
31
0
0
ARC
5
166
100
AcDbEntity
8
0
100
AcDbCircle
10
2.8421709430404007e-13
20
-98.220445305493413
30
0
40
200.00000000000119
210
0
220
-0
230
1
100
AcDbArc
50
72.960355375384893
51
107.03964462461526
0
LINE
5
167
100
AcDbEntity
8
0
100
AcDbLine
10
58.606665978959512
20
100.99999999999997
30
0
11
58.606665978959512
21
92.999999999999972
31
0
0
ENDSEC
0
SECTION
2
OBJECTS
0
DICTIONARY
5
C
100
AcDbDictionary
3
ACAD_GROUP
350
D
3
ACAD_MLINESTYLE
350
17
0
DICTIONARY
5
D
100
AcDbDictionary
0
DICTIONARY
5
1A
330
C
100
AcDbDictionary
0
DICTIONARY
5
17
100
AcDbDictionary
0
ENDSEC
0
EOF
